<?xml version="1.0" encoding="utf-8"?>
<!-- Generator: Adobe Illustrator 27.5.0, SVG Export Plug-In . SVG Version: 6.00 Build 0)  -->
<svg version="1.1" id="Layer_1" xmlns="http://www.w3.org/2000/svg" xmlns:xlink="http://www.w3.org/1999/xlink" x="0px" y="0px"
	 viewBox="0 0 256 256" style="enable-background:new 0 0 256 256;" xml:space="preserve">
<style type="text/css">
	.st0{fill-rule:evenodd;clip-rule:evenodd;fill:#EE2E2B;}
</style>
<path class="st0" d="M127.6,0C57.1,0,0,57.1,0,127.6C0,184,36.8,231.7,86.9,249c6.3,0.8,8.6-3.1,8.6-6.3c0-3.1,0-11,0-21.9
	c-35.2,7.8-43.1-17.2-43.1-17.2c-5.5-14.9-14.1-18.8-14.1-18.8c-11.7-7.8,0.8-7.8,0.8-7.8c12.5,0.8,19.6,13.3,19.6,13.3
	c11.7,19.6,29.7,14.1,36.8,11c0.8-8.6,4.7-14.1,7.8-17.2c-28.2-3.1-57.9-14.1-57.9-63.4c0-14.1,4.7-25.1,13.3-34.4
	c-1.6-3.1-5.5-16.4,1.6-33.7c0,0,11-3.1,35.2,13.3c10.2-3.1,21.1-3.9,32.1-3.9s21.9,1.6,32.1,3.9c24.3-16.4,35.2-13.3,35.2-13.3
	c7,17.2,2.3,30.5,1.6,33.7c7.8,8.6,13.3,20.4,13.3,34.4c0,49.3-29.7,59.5-57.9,62.6c4.7,3.9,8.6,11.7,8.6,23.5c0,17.2,0,30.5,0,35.2
	c0,3.1,2.3,7,8.6,6.3c50.9-17.2,86.9-65,86.9-121.3C255.2,57.1,198.1,0,127.6,0z"/>
</svg>
